<?xml version="1.0" encoding="UTF-8" standalone="no"?>
<svg
   xmlns:dc="http://purl.org/dc/elements/1.1/"
   xmlns:cc="http://creativecommons.org/ns#"
   xmlns:rdf="http://www.w3.org/1999/02/22-rdf-syntax-ns#"
   xmlns:svg="http://www.w3.org/2000/svg"
   xmlns="http://www.w3.org/2000/svg"
   xmlns:sodipodi="http://sodipodi.sourceforge.net/DTD/sodipodi-0.dtd"
   xmlns:inkscape="http://www.inkscape.org/namespaces/inkscape"
   version="1.1"
   viewBox="0 0 40 40"
   id="svg16"
   sodipodi:docname="python_black.svg"
   inkscape:version="0.92.3 (2405546, 2018-03-11)">
  <metadata
     id="metadata22">
    <rdf:RDF>
      <cc:Work
         rdf:about="">
        <dc:format>image/svg+xml</dc:format>
        <dc:type
           rdf:resource="http://purl.org/dc/dcmitype/StillImage" />
      </cc:Work>
    </rdf:RDF>
  </metadata>
  <defs
     id="defs20" />
  <sodipodi:namedview
     pagecolor="#ffffff"
     bordercolor="#666666"
     borderopacity="1"
     objecttolerance="10"
     gridtolerance="10"
     guidetolerance="10"
     inkscape:pageopacity="0"
     inkscape:pageshadow="2"
     inkscape:window-width="1853"
     inkscape:window-height="1025"
     id="namedview18"
     showgrid="false"
     inkscape:snap-bbox="false"
     inkscape:bbox-paths="false"
     inkscape:snap-intersection-paths="true"
     inkscape:zoom="16"
     inkscape:cx="36.630535"
     inkscape:cy="20.58358"
     inkscape:window-x="1987"
     inkscape:window-y="147"
     inkscape:window-maximized="1"
     inkscape:current-layer="svg16" />
  <path
     d="M 20 0 C 14.46 0 10 2.23 10 5 L 10 8.9941406 L 19.994141 8.9941406 L 19.994141 9.9980469 L 10 9.9980469 L 10 10 L 5 10 C 2.23 10 0 14.46 0 20 C 0 25.54 2.23 30 5 30 L 9 30 C 9 27.479167 9.1549662 25.571541 9.5234375 24.097656 C 9.8919088 22.623771 10.492174 21.565636 11.375 20.859375 C 13.140653 19.44685 15.75 19.5 19.5 19.5 C 23.75 19.5 26.411903 19.443006 27.890625 18.347656 C 28.629986 17.799981 29.143687 16.988977 29.492188 15.654297 C 29.840687 14.319617 30 12.479167 30 10 L 30 5 C 30 2.23 25.54 0 20 0 z M 14.5 3.1503906 A 1.85 1.85 0 0 1 16.349609 5 A 1.85 1.85 0 0 1 14.5 6.8496094 A 1.85 1.85 0 0 1 12.650391 5 A 1.85 1.85 0 0 1 14.5 3.1503906 z M 31 10 C 31 12.520833 30.846813 14.430383 30.460938 15.908203 C 30.075061 17.386023 29.432514 18.450019 28.484375 19.152344 C 26.588097 20.55699 23.75 20.5 19.5 20.5 C 15.75 20.5 13.359347 20.553147 12 21.640625 C 11.320326 22.184364 10.82684 23.001229 10.492188 24.339844 C 10.157533 25.678459 10 27.520833 10 30 L 10 35 C 10 37.77 14.46 40 20 40 C 25.54 40 30 37.77 30 35 L 30 31.003906 L 20.001953 31.003906 L 20.001953 30 L 30 30 L 35 30 C 37.77 30 40 25.54 40 20 C 40 14.46 37.77 10 35 10 L 31 10 z M 25.5 33.150391 A 1.85 1.85 0 0 1 27.349609 35 A 1.85 1.85 0 0 1 25.5 36.849609 A 1.85 1.85 0 0 1 23.650391 35 A 1.85 1.85 0 0 1 25.5 33.150391 z "
     id="rect2" />
</svg>
